<?xml version="1.0" encoding="UTF-8"?>
<svg id="Layer_1" data-name="Layer 1" xmlns="http://www.w3.org/2000/svg" viewBox="0 0 400.1 327">
  <defs>
    <style>
      .cls-1, .cls-2, .cls-3, .cls-4, .cls-5, .cls-6, .cls-7, .cls-8, .cls-9 {
        fill: none;
      }

      .cls-1, .cls-2, .cls-4, .cls-10, .cls-7, .cls-8 {
        stroke-width: 1.13px;
      }

      .cls-1, .cls-3, .cls-4, .cls-5, .cls-10, .cls-6, .cls-8 {
        stroke-miterlimit: 10;
      }

      .cls-1, .cls-5, .cls-10 {
        stroke: #fff;
      }

      .cls-11 {
        fill: #fff;
      }

      .cls-12 {
        fill: #282e5c;
      }

      .cls-2, .cls-4 {
        stroke: #289df2;
      }

      .cls-2, .cls-7, .cls-9 {
        stroke-linecap: round;
        stroke-linejoin: round;
      }

      .cls-3 {
        stroke: #f7f7f7;
        stroke-width: .25px;
      }

      .cls-13 {
        isolation: isolate;
      }

      .cls-14, .cls-10 {
        fill: #289df2;
      }

      .cls-15 {
        fill: #0f3775;
      }

      .cls-16 {
        fill: #e5f1ff;
      }

      .cls-17 {
        fill: #287dd1;
      }

      .cls-18 {
        fill: #f9fbfc;
      }

      .cls-19 {
        fill: #284d89;
      }

      .cls-20 {
        fill: #2889db;
      }

      .cls-21 {
        fill: #0f3157;
      }

      .cls-22 {
        fill: #a9ccea;
      }

      .cls-5 {
        stroke-width: .56px;
      }

      .cls-23 {
        fill: #28385e;
      }

      .cls-6 {
        stroke: #ff5c66;
        stroke-width: 1.02px;
      }

      .cls-7 {
        stroke-dasharray: 0 0 0 5.64;
      }

      .cls-7, .cls-8 {
        stroke: #ff4d6b;
      }

      .cls-24 {
        fill: #ff4d6b;
      }

      .cls-25 {
        fill: #f7f7f7;
      }

      .cls-26 {
        fill: #1ae5ff;
      }

      .cls-9 {
        stroke: #284d89;
        stroke-width: 2.26px;
      }
    </style>
  </defs>
  <g id="OBJECTS">
    <g>
      <circle class="cls-16" cx="314.3" cy="85.8" r="85.8"/>
      <circle class="cls-16" cx="93.2" cy="266.7" r="50.2"/>
      <g>
        <path class="cls-22" d="m92.5,28.6c-25.3,0-45.9,20.5-45.9,45.9s20.5,45.9,45.9,45.9,45.9-20.5,45.9-45.9c0-25.4-20.5-45.9-45.9-45.9Zm0,75.1c-16.2,0-29.3-13.1-29.3-29.3s13.1-29.3,29.3-29.3,29.3,13.1,29.3,29.3-13.1,29.3-29.3,29.3Z"/>
        <path class="cls-21" d="m265.8,321.7c0,2.9-2.4,5.3-5.3,5.3H127.5c-2.9,0-5.3-2.4-5.3-5.3s2.4-5.3,5.3-5.3h47.2l6.5-12h25.6l6.5,12h47.2c2.9.1,5.3,2.4,5.3,5.3Z"/>
        <rect class="cls-24" x="182" y="293.6" width="21.8" height="6.4"/>
        <rect class="cls-24" x="182" y="283" width="21.8" height="6.4"/>
        <path class="cls-7" d="m366.5,261.4c-3.8,1.5-7.9,2.3-12.2,2.3-18.8,0-34.1-15.3-34.1-34.1s15.3-34.1,34.1-34.1,34.1,15.3,34.1,34.1c0,5-1.1,9.8-3.1,14.1"/>
        <path class="cls-14" d="m270.2,69.5h-5.4c-1.1-4.8-3-9.4-5.6-13.5l3.8-3.8c1.7-1.7,1.7-4.3,0-6l-8.5-8.6c-1.7-1.7-4.3-1.7-6,0l-3.8,3.8c-4.1-2.5-8.6-4.4-13.5-5.6v-5.4c0-2.3-1.9-4.2-4.2-4.2h-12.1c-2.3,0-4.2,1.9-4.2,4.2v5.4c-4.8,1.1-9.4,3-13.5,5.6l-3.8-3.8c-1.7-1.7-4.3-1.7-6,0l-8.5,8.6c-1.7,1.7-1.7,4.3,0,6l3.8,3.8c-2.5,4.1-4.4,8.6-5.6,13.5h-5.4c-2.3,0-4.2,1.9-4.2,4.2v12.1c0,2.3,1.9,4.2,4.2,4.2h5.4c1.1,4.8,3,9.4,5.6,13.5l-3.8,3.8c-1.7,1.7-1.7,4.3,0,6l8.5,8.6c1.7,1.7,4.3,1.7,6,0l3.8-3.8c4.1,2.5,8.6,4.4,13.5,5.6v5.4c0,2.3,1.9,4.2,4.2,4.2h12.1c2.3,0,4.2-1.9,4.2-4.2v-5.4c4.8-1.1,9.4-3,13.5-5.6l3.8,3.8c1.7,1.7,4.3,1.7,6,0l8.5-8.6c1.7-1.7,1.7-4.3,0-6l-3.8-3.8c2.5-4.1,4.4-8.6,5.6-13.5h5.4c2.3,0,4.2-1.9,4.2-4.2v-12.1c.1-2.3-1.8-4.2-4.2-4.2Zm-49.3,31.9c-11.9,0-21.6-9.7-21.6-21.6s9.7-21.6,21.6-21.6,21.6,9.7,21.6,21.6c-.1,11.9-9.7,21.6-21.6,21.6Z"/>
        <path class="cls-15" d="m44.2,280.2c-6.3,0-11.5-5.1-11.5-11.5V89.2c0-6.3,5.1-11.5,11.5-11.5h299.5c6.3,0,11.5,5.1,11.5,11.5v179.5c0,6.3-5.1,11.5-11.5,11.5H44.2Z"/>
        <rect class="cls-19" x="56.3" y="102.8" width="33.3" height="7.3"/>
        <rect class="cls-19" x="96.3" y="102.8" width="33.3" height="7.3"/>
        <rect class="cls-19" x="197.8" y="102.8" width="33.3" height="7.3"/>
        <rect class="cls-19" x="299.3" y="102.8" width="33.3" height="7.3"/>
        <rect class="cls-24" x="134.1" y="102.8" width="59.5" height="7.3"/>
        <rect class="cls-20" x="235" y="102.8" width="59.5" height="7.3"/>
        <rect class="cls-20" x="56.4" y="97" width="5.8" height="3.6"/>
        <g>
          <rect class="cls-11" x="56.4" y="116.1" width="60.8" height="3.6"/>
          <rect class="cls-11" x="56.4" y="122.4" width="18" height="3.6"/>
        </g>
        <path class="cls-19" d="m120.8,254.5h-56.4c-4.2,0-7.6-3.4-7.6-7.6v-102.1c0-4.2,3.4-7.6,7.6-7.6h56.4c4.2,0,7.6,3.4,7.6,7.6v102.1c0,4.2-3.4,7.6-7.6,7.6Z"/>
        <g>
          <rect class="cls-11" x="65.8" y="154.4" width="24" height="3.7"/>
          <rect class="cls-11" x="65.8" y="162.6" width="24" height="3.7"/>
          <rect class="cls-11" x="65.8" y="170.7" width="24" height="3.7"/>
        </g>
        <rect class="cls-11" x="65.8" y="204.8" width="14.7" height="3.7"/>
        <rect class="cls-11" x="65.8" y="213" width="14.7" height="3.7"/>
        <rect class="cls-11" x="91" y="213" width="14.7" height="3.7"/>
        <rect class="cls-11" x="65.8" y="195.5" width="9.2" height="3.7"/>
        <rect class="cls-11" x="105.3" y="195.5" width="4.9" height="3.7"/>
        <rect class="cls-24" x="78.2" y="195.5" width="25.2" height="3.7"/>
        <rect class="cls-20" x="65.8" y="181.7" width="3.5" height="3.7"/>
        <rect class="cls-24" x="65.8" y="188.2" width="3.5" height="3.7"/>
        <polygon class="cls-11" points="85.4 217.4 84.1 217.4 87.2 212.7 88.5 212.7 85.4 217.4"/>
        <rect class="cls-12" x="65.8" y="223.7" width="54.4" height="3.1"/>
        <rect class="cls-12" x="65.8" y="230.8" width="54.4" height="3.1"/>
        <path class="cls-14" d="m382,185.7h-149.6c-3.7,0-6.8-3-6.8-6.8v-40.6c0-3.7,3-6.8,6.8-6.8h149.6c3.7,0,6.8,3,6.8,6.8v40.6c-.1,3.7-3.1,6.8-6.8,6.8Z"/>
        <path class="cls-1" d="m274.1,166.5s8.3-20.3,31.9-15.4,35.7,31.6,66.2,9.8"/>
        <rect class="cls-10" x="347.4" y="167.6" width="3.4" height="3.4"/>
        <line class="cls-5" x1="278.2" y1="150.2" x2="321.1" y2="150.2"/>
        <line class="cls-5" x1="327.6" y1="170.3" x2="370.5" y2="170.3"/>
        <rect class="cls-10" x="296.3" y="148.5" width="3.4" height="3.4"/>
        <g>
          <path class="cls-19" d="m254.2,199.6h-32.3c-2.7,0-4.9-2.2-4.9-4.9v-48.5c0-2.7,2.2-4.9,4.9-4.9h32.3c2.7,0,4.9,2.2,4.9,4.9v48.5c-.1,2.7-2.2,4.9-4.9,4.9Z"/>
          <g>
            <g>
              <rect class="cls-11" x="223.5" y="149.6" width="24" height="3.3"/>
              <rect class="cls-11" x="223.5" y="157" width="24" height="3.3"/>
              <rect class="cls-11" x="223.5" y="164.3" width="9" height="3.3"/>
            </g>
            <g>
              <rect class="cls-14" x="223.5" y="172" width="15.6" height="3.3"/>
              <rect class="cls-14" x="223.5" y="179.3" width="10.5" height="3.3"/>
              <rect class="cls-11" x="223.5" y="186.7" width="10.5" height="3.3"/>
            </g>
          </g>
        </g>
        <line class="cls-9" x1="362.4" y1="124.2" x2="379.3" y2="124.2"/>
        <g>
          <path class="cls-6" d="m324.4,219.7l-5.8,4.6-8.4,1.5s-7.9-.5-8.6-.5c-.8,0-6.1-4.3-6.1-4.3l-9.9-3.6-6.9,2.5-8.1-1.8-12.2-.8-11.7,4.6-9.6,1.5-8.6,2.8-9.6.8-10.4-8.1-9.6-1.8-9.9,5.6-7.9,2.5-8.9-.3-11.3,6.9h-6.7l-11.3,4"/>
          <g>
            <line class="cls-3" x1="142.9" y1="236" x2="324.7" y2="236"/>
            <rect class="cls-25" x="141.1" y="233.7" width="1.9" height="4.6"/>
            <rect class="cls-25" x="323.6" y="233.7" width="1.9" height="4.6"/>
          </g>
          <line class="cls-3" x1="324.5" y1="236" x2="324.5" y2="220.7"/>
          <path class="cls-25" d="m325.5,219.9c0,.8-.6,1.4-1.4,1.4s-1.4-.6-1.4-1.4.6-1.4,1.4-1.4,1.4.6,1.4,1.4Z"/>
          <g class="cls-13">
            <path class="cls-25" d="m147.65,244.32c.22.1.38.2.48.3.19.19.29.45.29.77,0,.43-.16.77-.49,1-.29.21-.69.31-1.2.31h-3.16v-.11c.19-.05.25-.13.25-.29v-3.63c0-.16-.06-.23-.25-.29v-.11h3.11c.54,0,.94.1,1.2.29.27.21.4.49.4.85,0,.21-.05.38-.14.52-.09.13-.25.27-.49.39Zm-2.77-.39h1.61c.51,0,.7-.12.7-.43s-.19-.43-.7-.43h-1.61v.86Zm0,1.97h1.65c.54,0,.8-.19.8-.58s-.27-.58-.8-.58h-1.65v1.17Z"/>
            <path class="cls-25" d="m150.39,244.82v1.08h2.82c.16,0,.24-.06.29-.26h.11v1.32h-.11c-.05-.19-.13-.25-.29-.25h-4.14v-.11c.19-.05.25-.13.25-.29v-3.63c0-.16-.06-.23-.25-.29v-.11h4.02c.17,0,.25-.06.3-.25h.11v1.32h-.11c-.05-.19-.13-.26-.3-.26h-2.7v.98h1.67c.16,0,.24-.06.3-.25h.11v1.29h-.11c-.05-.19-.13-.26-.3-.26h-1.67Z"/>
            <path class="cls-25" d="m156.78,243.07v3.23c0,.16.06.24.25.3v.11h-1.57v-.11c.19-.05.25-.13.25-.29v-3.23h-1.31c-.17,0-.25.07-.3.26h-.11v-1.32h.11c.05.19.12.25.29.25h3.68c.17,0,.25-.06.3-.25h.11v1.32h-.11c-.05-.19-.13-.26-.3-.26h-1.31Z"/>
            <path class="cls-25" d="m161.83,245.59h-2.04l-.23.48c-.06.12-.08.21-.08.27,0,.13.08.21.25.24v.11h-1.63v-.11c.1-.02.17-.05.22-.09.05-.04.11-.13.17-.27l1.62-3.29c.06-.12.09-.23.09-.33,0-.11-.08-.19-.22-.25v-.11h1.73v.11c-.15.06-.22.15-.22.27,0,.09.03.19.1.32l1.68,3.19c.09.17.17.29.22.34.05.05.13.09.24.11v.11h-1.81v-.11c.17-.03.26-.11.26-.24,0-.08-.03-.18-.1-.3l-.25-.46Zm-.32-.62l-.73-1.42-.69,1.42h1.42Z"/>
            <path class="cls-25" d="m168.58,243.07v3.23c0,.16.06.24.25.3v.11h-1.57v-.11c.19-.05.25-.13.25-.29v-3.23h-1.31c-.17,0-.25.07-.3.26h-.11v-1.32h.11c.05.19.12.25.29.25h3.68c.17,0,.25-.06.3-.25h.11v1.32h-.11c-.05-.19-.13-.26-.3-.26h-1.31Z"/>
            <path class="cls-25" d="m172.12,244.82v1.08h2.82c.16,0,.24-.06.29-.26h.11v1.32h-.11c-.05-.19-.13-.25-.29-.25h-4.14v-.11c.19-.05.25-.13.25-.29v-3.63c0-.16-.06-.23-.25-.29v-.11h4.02c.17,0,.25-.06.3-.25h.11v1.32h-.11c-.05-.19-.13-.26-.3-.26h-2.7v.98h1.67c.16,0,.24-.06.3-.25h.11v1.29h-.11c-.05-.19-.13-.26-.3-.26h-1.67Z"/>
            <path class="cls-25" d="m180.28,242.66l-.54,1.04-.1-.05c0-.09-.03-.16-.08-.21-.15-.14-.37-.25-.67-.33-.29-.09-.59-.13-.89-.13-.26,0-.48.04-.68.11-.29.1-.43.25-.43.45,0,.13.07.22.21.28.14.05.4.1.8.13l.63.05c.55.04.96.15,1.25.32.16.1.29.22.39.38.13.2.19.42.19.67,0,.45-.2.81-.61,1.07-.39.25-.92.38-1.58.38s-1.32-.14-1.94-.42c-.04-.02-.08-.03-.11-.03-.05,0-.1.03-.15.1l-.1-.04.46-1.09.1.04v.03c0,.07.03.13.08.17.13.12.36.22.69.31.33.08.65.13.96.13.28,0,.53-.04.75-.11.27-.09.41-.23.41-.44,0-.16-.1-.27-.29-.34-.13-.04-.36-.08-.69-.11l-.62-.05c-.34-.03-.59-.06-.77-.1-.18-.04-.33-.1-.46-.19-.34-.21-.54-.6-.54-1.03,0-.49.21-.86.63-1.12.38-.23.85-.35,1.41-.35.31,0,.59.04.85.1.27.07.58.18.94.35.11.05.18.08.23.08s.1-.03.16-.09l.1.05Z"/>
            <path class="cls-25" d="m183.53,243.07v3.23c0,.16.06.24.25.3v.11h-1.57v-.11c.19-.05.25-.13.25-.29v-3.23h-1.31c-.17,0-.25.07-.3.26h-.11v-1.32h.11c.05.19.12.25.29.25h3.68c.17,0,.25-.06.3-.25h.11v1.32h-.11c-.05-.19-.13-.26-.3-.26h-1.31Z"/>
          </g>
          <rect class="cls-23" x="184.9" y="242.6" width="113" height="2"/>
          <rect class="cls-24" x="184.9" y="242.6" width="69.4" height="2"/>
          <rect class="cls-23" x="184.9" y="246.5" width="55.6" height="2"/>
          <g>
            <polygon class="cls-24" points="149.7 252.5 156.5 252.5 157.4 250.6 143.6 250.6 143.6 253.8 148.4 253.8 149.7 252.5"/>
            <rect class="cls-25" x="163.1" y="250.6" width=".8" height=".8"/>
            <rect class="cls-25" x="167.8" y="250.6" width=".8" height=".8"/>
            <rect class="cls-25" x="172.5" y="250.6" width=".8" height=".8"/>
          </g>
          <g class="cls-13">
            <path class="cls-25" d="m315.83,214.19l.96-1.27.1.07c-.02.07-.03.13-.03.17,0,.13.11.27.32.4.44.29.93.43,1.47.43.4,0,.71-.08.94-.25.25-.18.37-.43.37-.75,0-.29-.12-.53-.36-.7-.24-.17-.56-.26-.96-.26-.3,0-.58.05-.84.14-.26.1-.39.2-.39.31,0,.04.02.09.06.16l-.1.08-1.4-1.4.08-.1s.04,0,.05,0c.13,0,.19-.08.19-.24v-1.15c0-.17-.07-.25-.25-.3v-.13h4.29c.16,0,.23-.06.29-.26h.13v1.43h-.13c-.06-.19-.13-.25-.29-.25h-3.09v1.17c.44-.22.94-.33,1.52-.33.75,0,1.34.17,1.78.53.4.33.6.75.6,1.29,0,.41-.12.77-.36,1.09-.41.56-1.12.83-2.11.83-.64,0-1.19-.12-1.65-.34-.12-.06-.3-.16-.55-.31-.11-.07-.21-.1-.3-.1-.05,0-.13.03-.23.09l-.1-.08Z"/>
            <path class="cls-25" d="m324.29,209.33c.71,0,1.3.23,1.77.69.53.52.79,1.24.79,2.15,0,.29-.04.58-.12.87-.08.29-.19.55-.33.77-.24.38-.56.67-.95.87-.35.17-.74.26-1.17.26-.71,0-1.3-.23-1.77-.7-.23-.23-.4-.48-.52-.76-.18-.42-.27-.86-.27-1.34,0-.65.15-1.2.44-1.67.23-.37.55-.66.95-.87.33-.17.72-.26,1.16-.26Zm0,.92c-.42,0-.75.19-1,.56-.23.35-.34.78-.34,1.29s.11.94.34,1.29c.25.37.58.56,1.01.56s.76-.19,1.01-.56c.23-.34.35-.77.35-1.27,0-.54-.12-.98-.35-1.31-.25-.37-.58-.55-1.01-.56Z"/>
            <path class="cls-25" d="m330.08,209.33c.71,0,1.3.23,1.77.69.53.52.79,1.24.79,2.15,0,.29-.04.58-.12.87-.08.29-.19.55-.32.77-.24.38-.56.67-.95.87-.35.17-.74.26-1.17.26-.71,0-1.3-.23-1.77-.7-.23-.23-.4-.48-.52-.76-.18-.42-.27-.86-.27-1.34,0-.65.15-1.2.44-1.67.23-.37.55-.66.95-.87.33-.17.72-.26,1.16-.26Zm0,.92c-.42,0-.75.19-1,.56-.23.35-.34.78-.34,1.29s.11.94.34,1.29c.25.37.58.56,1.01.56s.76-.19,1.01-.56c.23-.34.35-.77.35-1.27,0-.54-.12-.98-.35-1.31-.25-.37-.58-.55-1.01-.56Z"/>
          </g>
          <g>
            <polygon class="cls-23" points="306 248.7 304.3 248.7 301.6 242.6 303.3 242.6 306 248.7"/>
            <polygon class="cls-23" points="310.4 248.7 308.7 248.7 306 242.6 307.7 242.6 310.4 248.7"/>
            <polygon class="cls-23" points="314.8 248.7 313.1 248.7 310.4 242.6 312.1 242.6 314.8 248.7"/>
            <polygon class="cls-23" points="319.2 248.7 317.5 248.7 314.8 242.6 316.5 242.6 319.2 248.7"/>
            <polygon class="cls-23" points="323.6 248.7 321.9 248.7 319.2 242.6 320.8 242.6 323.6 248.7"/>
          </g>
        </g>
        <g>
          <rect class="cls-22" x="288.7" y="39" width="27.5" height="4.9"/>
          <rect class="cls-22" x="288.7" y="47.8" width="41.5" height="4.9"/>
          <rect class="cls-22" x="288.7" y="56.6" width="51.2" height="4.9"/>
          <rect class="cls-22" x="288.7" y="65.4" width="19.6" height="4.9"/>
        </g>
        <g>
          <rect class="cls-20" y="98.3" width="27.5" height="4.9"/>
          <rect class="cls-22" y="107.2" width="41.5" height="4.9"/>
          <rect class="cls-22" y="116" width="51.2" height="4.9"/>
          <rect class="cls-22" y="124.8" width="19.6" height="4.9"/>
        </g>
        <rect class="cls-4" x="68.7" y="271.4" width="117.3" height="15.2"/>
        <rect class="cls-4" x="125.2" y="151.5" width="5.6" height="34.6"/>
        <g>
          <circle class="cls-24" cx="354.19" cy="229.59" r="19.4"/>
          <g>
            <path class="cls-18" d="m352.8,227.7l-7.7,2.8,7.7,2.8v2.9l-11-4.2v-3l11-4.2v2.9Z"/>
            <path class="cls-18" d="m355.4,224.9l11,4.2v3l-11,4.2v-2.9l7.7-2.8-7.7-2.8v-2.9Z"/>
          </g>
        </g>
        <path class="cls-8" d="m386.7,245.4c0,1.4-1.1,2.5-2.5,2.5s-2.5-1.1-2.5-2.5,1.1-2.5,2.5-2.5c1.3,0,2.5,1.1,2.5,2.5Z"/>
        <rect class="cls-4" x="62.5" y="61.6" width="91.9" height="9.6"/>
        <rect class="cls-14" x="66.4" y="64.7" width="56.9" height="2.8"/>
        <g>
          <rect class="cls-19" x="140.6" y="136.4" width="67.3" height="3.4"/>
          <rect class="cls-20" x="140.6" y="136.4" width="30.5" height="3.4"/>
        </g>
        <g>
          <rect class="cls-19" x="140.6" y="145.2" width="67.3" height="3.4"/>
          <rect class="cls-24" x="140.6" y="145.2" width="46.8" height="3.4"/>
        </g>
        <g>
          <rect class="cls-19" x="140.6" y="153.9" width="67.3" height="3.4"/>
          <rect class="cls-26" x="140.6" y="153.9" width="13.7" height="3.4"/>
        </g>
        <g>
          <rect class="cls-19" x="140.9" y="130.5" width="1.3" height="1.3"/>
          <rect class="cls-19" x="145.4" y="130.5" width="1.3" height="1.3"/>
          <rect class="cls-19" x="149.9" y="130.5" width="1.3" height="1.3"/>
        </g>
        <g>
          <rect class="cls-11" x="266.1" y="176.6" width="2.2" height="2.2"/>
          <rect class="cls-11" x="273.6" y="176.6" width="2.2" height="2.2"/>
          <rect class="cls-11" x="281.2" y="176.6" width="2.2" height="2.2"/>
        </g>
        <g>
          <rect class="cls-11" x="297.8" y="89.5" width="4.1" height="4.1"/>
          <rect class="cls-11" x="311.9" y="89.5" width="4.1" height="4.1"/>
          <rect class="cls-11" x="326" y="89.5" width="4.1" height="4.1"/>
        </g>
        <g>
          <rect class="cls-11" x="239.5" y="259.4" width="4.1" height="4.1"/>
          <rect class="cls-11" x="253.6" y="259.4" width="4.1" height="4.1"/>
          <rect class="cls-11" x="267.7" y="259.4" width="4.1" height="4.1"/>
        </g>
        <g>
          <rect class="cls-11" x="67" y="145.5" width="2.2" height="2.2"/>
          <rect class="cls-11" x="74.5" y="145.5" width="2.2" height="2.2"/>
          <rect class="cls-11" x="82.1" y="145.5" width="2.2" height="2.2"/>
        </g>
        <g>
          <rect class="cls-11" x="338" y="142.8" width="36.5" height="3.6"/>
          <rect class="cls-17" x="338" y="149.1" width="10.8" height="3.6"/>
        </g>
        <polygon class="cls-26" points="43.9 150.2 36 150.2 36 142.3 28.6 142.3 28.6 150.2 20.7 150.2 20.7 157.5 28.6 157.5 28.6 165.4 36 165.4 36 157.5 43.9 157.5 43.9 150.2"/>
        <polygon class="cls-20" points="22.7 172.1 17.9 172.1 17.9 167.3 13.4 167.3 13.4 172.1 8.6 172.1 8.6 176.6 13.4 176.6 13.4 181.4 17.9 181.4 17.9 176.6 22.7 176.6 22.7 172.1"/>
        <g>
          <path class="cls-19" d="m154.5,167.9c-6.8,0-12.3,5.5-12.3,12.3s5.5,12.3,12.3,12.3,12.3-5.5,12.3-12.3-5.5-12.3-12.3-12.3Zm0,18.8c-3.6,0-6.4-2.9-6.4-6.4s2.9-6.4,6.4-6.4,6.4,2.9,6.4,6.4-2.9,6.4-6.4,6.4Z"/>
          <path class="cls-14" d="m146.1,179.1c1.1,0,2.2-.7,2.7-1.7,1.1-2.1,3.2-3.5,5.7-3.5s4.7,1.4,5.7,3.5c.5,1,1.5,1.7,2.7,1.7h0c2.2,0,3.6-2.3,2.7-4.2-2-4.1-6.2-6.9-11.1-6.9s-9.1,2.8-11.1,6.9c-1,1.9.5,4.2,2.7,4.2h0Z"/>
        </g>
        <g>
          <path class="cls-19" d="m175.2,180.3c0,6.8,5.5,12.3,12.3,12.3s12.3-5.5,12.3-12.3-5.5-12.3-12.3-12.3c-6.8-.1-12.3,5.5-12.3,12.3Zm18.8,0c0,3.6-2.9,6.4-6.4,6.4s-6.4-2.9-6.4-6.4,2.9-6.4,6.4-6.4,6.4,2.8,6.4,6.4Z"/>
          <path class="cls-24" d="m186.3,188.7c0-1.1-.7-2.2-1.7-2.7-2.1-1.1-3.5-3.2-3.5-5.7s1.4-4.7,3.5-5.7c1-.5,1.7-1.5,1.7-2.7h0c0-2.2-2.3-3.6-4.2-2.7-4.1,2-6.9,6.2-6.9,11.1s2.8,9.1,6.9,11.1c2,.9,4.2-.6,4.2-2.7h0Z"/>
        </g>
        <rect class="cls-4" x="96.7" y="131.5" width="22.6" height="54.1"/>
        <g>
          <rect class="cls-26" x="99.9" y="142" width="6.6" height="1.9"/>
          <rect class="cls-26" x="99.9" y="146.3" width="6.6" height="1.9"/>
          <rect class="cls-26" x="99.9" y="150.7" width="6.6" height="1.9"/>
          <rect class="cls-26" x="99.9" y="173.2" width="6.6" height="1.9"/>
        </g>
        <g>
          <rect class="cls-26" x="99.9" y="157" width="9.6" height="1.9"/>
          <rect class="cls-11" x="99.9" y="161.4" width="9.6" height="1.9"/>
          <rect class="cls-11" x="99.9" y="165.7" width="9.6" height="1.9"/>
        </g>
        <rect class="cls-14" x="15.9" y="199.2" width="28.6" height="28.6"/>
        <rect class="cls-4" x=".8" y="206" width="28.6" height="28.6"/>
        <rect class="cls-4" x="355.6" y="281.9" width="12" height="12"/>
        <g>
          <polyline class="cls-1" points="211.3 262.9 221.5 262.9 227.1 268.6 285.7 268.6 294.7 259.5 326.3 259.5"/>
          <circle class="cls-1" cx="208.3" cy="263.1" r="3"/>
          <circle class="cls-1" cx="329.4" cy="259.4" r="3"/>
        </g>
        <path class="cls-14" d="m369.2,103.7c0,2.1-1.7,3.8-3.8,3.8s-3.8-1.7-3.8-3.8,1.7-3.8,3.8-3.8,3.8,1.8,3.8,3.8Z"/>
        <path class="cls-24" d="m21.9,250.3c0,2.1-1.7,3.8-3.8,3.8s-3.8-1.7-3.8-3.8,1.7-3.8,3.8-3.8c2.1.1,3.8,1.7,3.8,3.8Z"/>
        <path class="cls-24" d="m39.2,264.2c0,3.6-2.9,6.6-6.6,6.6s-6.6-2.9-6.6-6.6,2.9-6.6,6.6-6.6,6.6,3,6.6,6.6Z"/>
        <g>
          <rect class="cls-4" x="236.9" y="286.4" width="26.3" height="6"/>
          <rect class="cls-4" x="236.9" y="297.7" width="57.7" height="6"/>
        </g>
        <g>
          <line class="cls-2" x1="75.7" y1="292.2" x2="69.3" y2="298.5"/>
          <line class="cls-2" x1="81.8" y1="292.2" x2="75.4" y2="298.5"/>
          <line class="cls-2" x1="87.9" y1="292.2" x2="81.6" y2="298.5"/>
          <line class="cls-2" x1="94.1" y1="292.2" x2="87.7" y2="298.5"/>
          <line class="cls-2" x1="100.2" y1="292.2" x2="93.8" y2="298.5"/>
        </g>
      </g>
    </g>
  </g>
  <g class="cls-13">
    <path class="cls-11" d="m117.16,210.76v6.06c0,.24.09.35.38.43v.19h-2.5v-.19c.28-.08.38-.19.38-.43v-6.06h-2.48c-.23,0-.35.09-.42.37h-.19v-2.07h.19c.09.29.19.38.42.38h6.71c.24,0,.35-.09.43-.38h.19v2.07h-.19c-.08-.28-.19-.37-.43-.37h-2.48Z"/>
    <path class="cls-11" d="m126.01,215.4h-3.63l-.54,1.12c-.08.16-.11.28-.11.37,0,.17.13.29.39.36v.19h-2.65v-.19c.16-.03.28-.09.36-.16s.18-.23.28-.46l2.94-6.15c.09-.19.14-.35.14-.47,0-.18-.11-.31-.34-.39v-.19h2.84v.19c-.23.06-.35.18-.35.35,0,.11.04.24.11.39l3.05,6.16c.13.26.24.44.34.54.1.09.23.16.39.19v.19h-2.94v-.19c.26-.04.39-.16.39-.36,0-.08-.04-.21-.12-.36l-.55-1.12Zm-.5-1.1l-1.29-2.85-1.31,2.85h2.61Z"/>
    <path class="cls-11" d="m132.04,214.19v2.64c0,.23.1.35.38.42v.19h-2.5v-.19c.28-.08.38-.19.38-.42v-6.77c0-.24-.09-.35-.38-.43v-.19h4.99c.58,0,1.04.04,1.38.12.35.08.64.21.91.4.27.2.48.46.63.79.15.33.23.69.23,1.07,0,.54-.15,1.01-.43,1.42-.25.35-.58.6-1,.74-.41.15-.98.22-1.72.22h-2.87Zm0-1.32h2.67c.53,0,.9-.06,1.12-.17.28-.15.46-.5.46-.89s-.18-.74-.46-.88c-.21-.11-.59-.17-1.12-.17h-2.67v2.12Z"/>
    <path class="cls-11" d="m146.49,209.3c1.39,0,2.5.38,3.32,1.13.86.79,1.29,1.81,1.29,3.06,0,.77-.21,1.48-.62,2.14-.81,1.29-2.13,1.95-3.98,1.95-1.38,0-2.48-.38-3.3-1.13-.44-.4-.77-.88-1-1.45-.2-.5-.3-1.02-.3-1.56,0-.8.21-1.54.62-2.2.79-1.27,2.11-1.92,3.97-1.94Zm0,1.35c-.76,0-1.39.23-1.9.68-.6.53-.9,1.24-.9,2.1s.3,1.57.9,2.1c.51.45,1.15.68,1.92.68s1.41-.23,1.91-.68c.3-.27.53-.6.69-.99.14-.35.21-.71.21-1.08,0-.91-.3-1.62-.9-2.14-.51-.45-1.15-.67-1.92-.68Z"/>
    <path class="cls-11" d="m154.34,211.96v4.86c0,.24.09.35.38.43v.19h-2.35v-.19c.28-.08.38-.19.38-.43v-6.77c0-.23-.09-.35-.38-.42v-.19h2.72v.19c-.17.04-.25.13-.25.27,0,.09.05.2.16.31l4.41,4.59v-4.75c0-.23-.09-.35-.38-.42v-.19h2.35v.19c-.28.08-.38.19-.38.42v6.77c0,.24.09.35.38.43v.19h-2.52v-.19c.16-.04.25-.12.25-.25,0-.08-.09-.22-.29-.41l-4.48-4.63Z"/>
    <path class="cls-11" d="m172.95,213.25c.9.34,1.35.97,1.35,1.89,0,.73-.26,1.3-.79,1.72-.53.42-1.19.59-2.22.59h-5.47v-.19c.28-.08.38-.19.38-.43v-6.77c0-.24-.09-.35-.38-.43v-.19h5.41c.52,0,.94.04,1.25.12s.59.21.83.4c.47.37.71.91.71,1.61,0,.78-.36,1.34-1.08,1.69Zm-5-.63h3.06c.46,0,.79-.07.97-.21.21-.16.31-.4.31-.73,0-.67-.35-.93-1.28-.93h-3.06v1.86Zm0,3.5h2.96c.55,0,.95-.08,1.19-.23.28-.18.42-.46.42-.86s-.14-.68-.42-.86c-.24-.15-.63-.23-1.19-.23h-2.96v2.18Z"/>
    <path class="cls-11" d="m183.64,210.05v4.48c0,.85-.16,1.48-.47,1.9-.56.76-1.72,1.14-3.49,1.14-1.27,0-2.25-.21-2.92-.62-.39-.24-.67-.56-.82-.97-.15-.4-.22-.89-.22-1.45v-4.48c0-.24-.09-.35-.38-.43v-.19h2.5v.19c-.28.07-.38.19-.38.43v3.99c0,.46.02.8.08,1.03.05.22.15.4.29.55.38.4,1.01.6,1.92.6s1.55-.2,1.93-.6c.13-.15.23-.33.28-.55.05-.22.08-.56.08-1.03v-3.99c0-.24-.09-.35-.38-.43v-.19h2.36v.19c-.28.08-.38.19-.38.43Z"/>
    <path class="cls-11" d="m189.49,210.76v6.06c0,.24.09.35.38.43v.19h-2.5v-.19c.28-.08.38-.19.38-.43v-6.06h-2.48c-.23,0-.35.09-.42.37h-.19v-2.07h.19c.09.29.19.38.42.38h6.71c.24,0,.35-.09.43-.38h.19v2.07h-.19c-.08-.28-.19-.37-.43-.37h-2.48Z"/>
    <path class="cls-11" d="m197.58,210.76v6.06c0,.24.09.35.38.43v.19h-2.5v-.19c.28-.08.38-.19.38-.43v-6.06h-2.48c-.23,0-.35.09-.42.37h-.19v-2.07h.19c.09.29.19.38.42.38h6.71c.24,0,.35-.09.43-.38h.19v2.07h-.19c-.08-.28-.19-.37-.43-.37h-2.48Z"/>
    <path class="cls-11" d="m205.78,209.3c1.39,0,2.5.38,3.32,1.13.86.79,1.29,1.81,1.29,3.06,0,.77-.21,1.48-.62,2.14-.81,1.29-2.13,1.95-3.98,1.95-1.38,0-2.48-.38-3.3-1.13-.44-.4-.77-.88-1-1.45-.2-.5-.3-1.02-.3-1.56,0-.8.21-1.54.62-2.2.79-1.27,2.11-1.92,3.97-1.94Zm0,1.35c-.76,0-1.39.23-1.9.68-.6.53-.9,1.24-.9,2.1s.3,1.57.9,2.1c.51.45,1.15.68,1.92.68s1.41-.23,1.91-.68c.3-.27.53-.6.69-.99.14-.35.21-.71.21-1.08,0-.91-.3-1.62-.9-2.14-.51-.45-1.15-.67-1.92-.68Z"/>
    <path class="cls-11" d="m213.63,211.96v4.86c0,.24.09.35.38.43v.19h-2.35v-.19c.28-.08.38-.19.38-.43v-6.77c0-.23-.09-.35-.38-.42v-.19h2.72v.19c-.17.04-.25.13-.25.27,0,.09.05.2.16.31l4.41,4.59v-4.75c0-.23-.09-.35-.38-.42v-.19h2.35v.19c-.28.08-.38.19-.38.42v6.77c0,.24.09.35.38.43v.19h-2.52v-.19c.16-.04.25-.12.25-.25,0-.08-.09-.22-.29-.41l-4.48-4.63Z"/>
    <path class="cls-11" d="m229.56,210.11l-.96,1.88-.16-.09s0-.07,0-.09c0-.13-.11-.28-.34-.43-.7-.49-1.51-.73-2.45-.73-.42,0-.78.05-1.1.15-.46.16-.77.49-.77.86,0,.3.18.5.54.62.19.05.59.11,1.21.18l.92.09c.54.06.99.14,1.32.24.34.1.64.25.9.43.53.38.86,1.05.86,1.76,0,.56-.18,1.06-.54,1.5-.33.4-.84.69-1.53.88-.52.15-1.07.22-1.66.22-1.06,0-2.1-.25-3.13-.76-.22-.1-.35-.15-.39-.15-.05,0-.13.04-.24.13l-.17-.09.87-1.96.17.08v.08c0,.18.08.34.25.49.25.23.64.42,1.18.59s1.04.25,1.51.25c.52,0,.96-.09,1.33-.26.4-.19.67-.54.67-.9,0-.26-.14-.46-.43-.57-.2-.08-.6-.15-1.21-.22l-.9-.09c-.6-.06-1.03-.12-1.28-.18-.25-.06-.5-.15-.75-.28-.36-.18-.63-.44-.84-.79-.18-.32-.28-.68-.28-1.09,0-.67.23-1.24.7-1.68.61-.58,1.52-.87,2.74-.87.51,0,.99.05,1.43.16.44.1.99.29,1.65.57.23.09.36.13.42.13.08,0,.18-.05.29-.13l.16.09Z"/>
    <path class="cls-11" d="m237.96,210.76v6.06c0,.24.09.35.38.43v.19h-2.5v-.19c.28-.08.38-.19.38-.43v-6.06h-2.48c-.23,0-.35.09-.42.37h-.19v-2.07h.19c.09.29.19.38.42.38h6.71c.24,0,.35-.09.43-.38h.19v2.07h-.19c-.08-.28-.19-.37-.43-.37h-2.48Z"/>
    <path class="cls-11" d="m246.16,209.3c1.39,0,2.5.38,3.32,1.13.86.79,1.29,1.81,1.29,3.06,0,.77-.21,1.48-.62,2.14-.81,1.29-2.13,1.95-3.98,1.95-1.38,0-2.48-.38-3.3-1.13-.44-.4-.77-.88-1-1.45-.2-.5-.3-1.02-.3-1.56,0-.8.21-1.54.62-2.2.79-1.27,2.11-1.92,3.97-1.94Zm0,1.35c-.76,0-1.39.23-1.9.68-.6.53-.9,1.24-.9,2.1s.3,1.57.9,2.1c.51.45,1.15.68,1.92.68s1.41-.23,1.91-.68c.3-.27.53-.6.69-.99.14-.35.21-.71.21-1.08,0-.91-.3-1.62-.9-2.14-.51-.45-1.15-.67-1.92-.68Z"/>
    <path class="cls-11" d="m257.16,214.17v2.65c0,.23.1.35.38.42v.19h-2.5v-.19c.28-.08.38-.19.38-.42v-6.77c0-.24-.09-.35-.38-.43v-.19h5c.61,0,1.09.04,1.45.11s.67.19.94.37c.31.21.54.48.69.83.15.33.22.7.22,1.08,0,1.31-.73,2.07-2.17,2.29l1.55,2.21c.28.39.47.64.6.75.13.11.29.17.47.18v.19h-2.89v-.19c.2-.03.3-.1.3-.21,0-.07-.09-.24-.28-.51l-1.62-2.36h-2.13Zm0-1.32h2.7c.4,0,.68-.01.84-.04s.32-.07.45-.15c.3-.16.45-.45.45-.87s-.15-.71-.45-.87c-.14-.08-.29-.13-.45-.15-.16-.02-.44-.04-.84-.04h-2.7v2.1Z"/>
    <path class="cls-11" d="m272.77,210.05v4.48c0,.85-.16,1.48-.47,1.9-.56.76-1.72,1.14-3.49,1.14-1.27,0-2.25-.21-2.92-.62-.39-.24-.67-.56-.82-.97-.15-.4-.22-.89-.22-1.45v-4.48c0-.24-.09-.35-.38-.43v-.19h2.5v.19c-.28.07-.38.19-.38.43v3.99c0,.46.02.8.08,1.03.05.22.15.4.29.55.38.4,1.01.6,1.92.6s1.55-.2,1.93-.6c.13-.15.23-.33.28-.55.05-.22.08-.56.08-1.03v-3.99c0-.24-.09-.35-.38-.43v-.19h2.36v.19c-.28.08-.38.19-.38.43Z"/>
    <path class="cls-11" d="m276.4,211.96v4.86c0,.24.09.35.38.43v.19h-2.35v-.19c.28-.08.38-.19.38-.43v-6.77c0-.23-.09-.35-.38-.42v-.19h2.72v.19c-.17.04-.25.13-.25.27,0,.09.05.2.16.31l4.41,4.59v-4.75c0-.23-.09-.35-.38-.42v-.19h2.35v.19c-.28.08-.38.19-.38.42v6.77c0,.24.09.35.38.43v.19h-2.52v-.19c.16-.04.25-.12.25-.25,0-.08-.09-.22-.29-.41l-4.48-4.63Z"/>
  </g>
</svg>