<?xml version="1.0" encoding="utf-8"?>
<!-- Generator: Adobe Illustrator 27.2.0, SVG Export Plug-In . SVG Version: 6.00 Build 0)  -->
<svg version="1.1" id="Layer_2" xmlns="http://www.w3.org/2000/svg" xmlns:xlink="http://www.w3.org/1999/xlink" x="0px" y="0px"
	 viewBox="0 0 100 100" style="enable-background:new 0 0 100 100;" xml:space="preserve">
<style type="text/css">
	.st0{fill:#FFFFFF;}
	.st1{fill:#002A53;}
	.st2{fill:#002A52;}
</style>
<path class="st0" d="M81.8,100H18.2C8.1,100,0,91.9,0,81.8V18.2C0,8.1,8.1,0,18.2,0h63.6c10,0,18.2,8.1,18.2,18.2v63.6
	C100,91.9,91.9,100,81.8,100z"/>
<g>
	<path class="st1" d="M85,34.5c0,3.3-0.1,6.6,0,9.9c0.2,8.4-2.1,16.1-6.2,23.3c-5.9,10.4-14.5,17.8-24.9,23.5
		c-2.7,1.5-4.9,1.5-7.6,0C36.8,86,28.6,79.3,22.7,70.1c-3.9-6.2-6.5-12.9-7.4-20.1c-0.2-1.5-0.2-3-0.2-4.6c0-7.9,0-15.8,0-23.7
		c0-2.5,1-3.8,3.3-4.6c10-3.1,20-6.1,30-9.2c1-0.3,1.9-0.3,3,0C61.4,11,71.5,14,81.6,17.1c2.4,0.7,3.3,2,3.3,4.5
		C85,25.9,85,30.2,85,34.5C85,34.5,85,34.5,85,34.5z M19.6,35.4C19.6,35.4,19.6,35.4,19.6,35.4c0,1.6,0,3.2,0,4.8c0,3-0.1,6,0.2,8.9
		c0.6,5.9,2.6,11.4,5.5,16.5c5.8,9.9,14.2,16.9,24.3,22c0.3,0.2,0.9,0.1,1.3-0.1c8.9-4.5,16.5-10.7,22.1-19c4.7-7,7.6-14.6,7.5-23.1
		c0-7.6-0.1-15.3-0.1-22.9c0-0.8-0.3-1-0.9-1.2c-9.6-2.9-19.2-5.8-28.7-8.7c-0.5-0.1-1-0.2-1.5,0c-9.6,2.9-19.3,5.9-28.9,8.8
		c-0.7,0.2-0.8,0.5-0.8,1.1C19.6,26.8,19.6,31.1,19.6,35.4z"/>
	<g>
		<g>
			<path class="st2" d="M70.8,58.8c0.2,0.4,0.5,0.8,0.5,1.1c0,0.5-0.1,1.1-0.3,1.6c-0.2,0.6-0.6,1.3-0.6,1.9c-0.1,0.7,0,1.5,0,2.2
				c0.1,2.4-1.5,4.1-3.9,4c-2,0-4-0.3-6.1-0.5c-0.5,0-0.9-0.1-1.4-0.1c-1.2,0-1.9,0.5-2.1,1.7c-0.6,3.2-0.8,6.4,0.5,9.6
				c0.4,0.9,0.2,1.4-0.6,1.9c-2,1.1-4,2.3-5.9,3.5c-0.5,0.3-0.9,0.3-1.4,0c-6.2-3.4-11.7-7.5-16.6-12.6c-0.5-0.6-0.6-0.9-0.2-1.7
				c2-4.2,2.7-8.7,1.9-13.3c-0.2-1.2-0.9-2.4-1.5-3.6c-0.8-1.6-1.8-3.1-2.8-4.8c8.1,0,15.9,0,23.8,0c0.1,0.2,0.2,0.4,0.3,0.7
				c0.7,2.2,2.4,3.4,4.7,3.3c2-0.1,3.6-1.6,4-3.7c0.4-2.1-0.7-4.1-2.6-4.9c-2-0.9-4.1-0.3-5.5,1.5c-0.2,0.3-0.7,0.6-1.1,0.6
				c-7.9,0-15.8,0-23.6,0c-0.6,0-0.9-0.1-1-0.7c-0.2-0.8-0.4-1.6-0.7-2.6c0.5,0,0.8,0,1.2,0c5.6,0,11.3,0,16.9,0
				c2.1,0,3.7-0.7,5.1-2.2c1.9-2,3.8-3.9,5.7-5.8c0.4-0.4,0.7-0.6,1.3-0.3c2.6,1,5.2-0.4,5.9-3c0.7-2.7-0.9-5.2-3.6-5.7
				c-2.6-0.5-5,1.4-5.2,4.1c0,0.6,0.1,1.2,0.3,1.8c0.2,0.6,0.1,0.9-0.3,1.3c-2.1,2-4,4.2-6.2,6.2c-0.6,0.6-1.6,1.1-2.4,1.1
				c-6.3,0.1-12.6,0-19.1,0c-0.1-1-0.2-1.9-0.3-3.1c1.9,0,3.6-0.1,5.4,0c3.6,0.3,6.4-0.9,8.7-3.7c1.1-1.3,2.5-2.4,3.7-3.6
				c1.2,0.8,2.6,1.1,4.1,0.6c2.2-0.7,3.5-3.1,2.9-5.4c-0.6-2.3-2.8-3.7-5.2-3.3c-2.3,0.4-3.9,2.5-3.5,5c0.1,0.8-0.1,1.3-0.7,1.8
				c-1.6,1.6-3.2,3.1-4.7,4.8c-0.9,0.9-1.9,1.4-3.2,1.4c-2.4,0-4.8,0-7.2,0c0.3-2.8,1.1-5.5,2.6-7.9c3.6-5.6,8.7-9,15.3-10.1
				c4.9-0.8,9.8-0.3,14.4,1.7c7.4,3.3,11.7,10.3,11.5,18.3c0,0.1,0,0.1,0,0.2c-0.8,3.1,0.3,5.8,1.9,8.4c0.8,1.3,1.5,2.6,2.2,4
				c1,2,0.4,3.2-1.8,3.7c-0.1,0-0.1,0-0.2,0c-0.6,0.1-1.2,0.2-1.8,0.3c0.1,0.6,0.2,1.1,0.3,1.7C72.5,57.6,71.8,58.3,70.8,58.8z"/>
			<path class="st2" d="M58.1,31.6c0-1.1,0.9-2.1,2-2.1c1.2,0,2.1,0.9,2.1,2.1c0,1.2-0.9,2.2-2.1,2.2C59,33.7,58.1,32.7,58.1,31.6z"
				/>
			<path class="st2" d="M48.3,25.6c1.2,0,2.1,0.9,2,2.1c0,1.2-0.9,2-2.1,2c-1.2,0-2.1-1-2.1-2.2C46.2,26.4,47.1,25.6,48.3,25.6z"/>
			<path class="st2" d="M58.5,47.2c1.2,0,2,0.8,2,2.1c0,1.2-0.8,2.1-2,2.1c-1.2,0-2.1-0.9-2.1-2.1C56.4,48.1,57.3,47.2,58.5,47.2z"
				/>
		</g>
	</g>
</g>
</svg>
